<?xml version="1.0" encoding="UTF-8" standalone="no"?>
<!-- Created with Inkscape (http://www.inkscape.org/) -->

<svg
   width="32"
   height="32"
   viewBox="0 0 32 32"
   version="1.1"
   id="svg1"
   xmlns="http://www.w3.org/2000/svg"
   xmlns:svg="http://www.w3.org/2000/svg">
  <defs
     id="defs1" />
  <g
     id="layer1">
    <circle
       id="cicrle"
       cx="16"
       cy="16"
       r="6" />
    <path
       d="M 12.33,4.53 10.48,5.3 12.01,9 13.86,8.23 Z"
       id="path1" />
    <path
       d="M 19.67,4.53 18.14,8.23 19.99,9 21.52,5.3 Z"
       id="path2" />
    <path
       d="m 26.7,10.48 -3.7,1.53 0.77,1.85 3.7,-1.53 z"
       id="path3" />
    <path
       d="m 23.77,18.14 -0.77,1.85 3.7,1.53 0.77,-1.85 z"
       id="path4" />
    <path
       d="m 19.98,23.01 -1.85,0.77 1.53,3.7 1.85,-0.77 z"
       id="path5" />
    <path
       d="m 12.02,23.01 -1.53,3.7 1.85,0.77 1.53,-3.7 z"
       id="path6" />
    <path
       d="M 8.23,18.14 4.53,19.67 5.3,21.52 9,19.99 Z"
       id="path7" />
    <path
       d="M 5.3,10.48 4.53,12.33 8.23,13.86 9,12.01 Z"
       id="path8" />
  </g>
</svg>
